:SAMPLES-PER-SECOND 30
:FULLY-SPECIFIED
:DEGREES
37
root  83.0496 38.6972 2.67025 -38.3249 -83.9366 37.239
RightUpLeg  4.11484 -10.3485 -6.38823
RightLeg  11.9822 0.177501 0.122827
RightFoot  -15.4899 -0.0618699 1.18759
RightToes  -1.74624e-010 0 -3.6325e-017
Spine  2.648 1.73116 10.2375
Spine1  8.79272 4.01138 -8.06329
HEad  -7.77194 -1.75098 -3.66172
LeftShoulder1  -0.192319 4.00812 -32.0142
LeftArm  -4.69062 16.7258 -41.9718
LeftForeArm  35.458 -11.0648 -7.25037
LeftHand  -0.0913532 9.51986 -1.06446
RightShoulder  -1.13685 -6.546 30.8387
RightArm  27.2994 14.8459 48.4147
RightForeArm  6.93813 14.5698 7.82682
RightHand  -0.428173 5.65072 -4.78771
LeftUpLeg  -18.5946 3.81413 -1.34983
LeftLeg  9.51105 -1.35814 -0.613701
LeftFoot  -1.36731 0.618644 -6.98891
LeftToes  2.27646e-009 -8.13696e-011 -1.44715e-011
38
root  82.4734 38.6966 2.68758 -43.3923 -84.2997 42.5087
RightUpLeg  5.25207 -10.2536 -6.65686
RightLeg  10.988 0.662164 0.0737112
RightFoot  -15.6913 -0.0702461 0.950544
RightToes  -1.74624e-010 0 -3.6325e-017
Spine  2.57703 1.99413 9.21451
Spine1  8.89297 4.25535 -8.02533
HEad  -7.74093 -2.0109 -3.21929
LeftShoulder1  -0.139043 3.8691 -31.9406
LeftArm  -5.90311 17.3121 -41.9737
LeftForeArm  36.3774 -10.3475 -7.13007
LeftHand  -0.108241 10.0064 -1.29763
RightShoulder  -1.15961 -6.59056 31.0387
RightArm  27.5475 14.4503 48.2188
RightForeArm  7.44176 15.3 7.38814
RightHand  -0.231397 5.20066 -2.85667
LeftUpLeg  -18.0471 3.01087 -1.19692
LeftLeg  5.3259 1.35738 -1.0009
LeftFoot  -0.383101 0.667195 -6.92159
LeftToes  2.27646e-009 -8.13696e-011 -1.44715e-011
39
root  81.7979 38.6128 2.77139 -45.7759 -84.8313 45.1826
RightUpLeg  6.24844 -10.2053 -6.71188
RightLeg  10.4933 1.1387 0.103964
RightFoot  -16.393 -0.0552423 1.24994
RightToes  -1.74624e-010 0 -3.6325e-017
Spine  2.00523 2.19358 8.78507
Spine1  9.29209 4.47902 -8.13064
HEad  -7.07176 -1.75776 -2.92186
LeftShoulder1  -0.135799 3.86223 -31.7634
LeftArm  -5.98073 17.967 -41.6651
LeftForeArm  36.4792 -10.3706 -7.06125
LeftHand  -0.106921 9.44813 -1.50611
RightShoulder  -1.18392 -6.63879 31.2399
RightArm  27.4437 14.0087 48.3366
RightForeArm  7.7999 14.98 7.55938
RightHand  -0.268199 5.02934 -3.28782
LeftUpLeg  -17.9556 2.64831 -0.980812
LeftLeg  3.18261 3.60971 -1.24288
LeftFoot  0.3767 0.736617 -7.18808
LeftToes  2.27646e-009 -8.13696e-011 -1.44715e-011
40
root  81.0598 38.4822 2.9571 -42.9917 -84.8922 42.5458
RightUpLeg  7.53333 -10.3152 -6.97481
RightLeg  10.2501 1.35992 0.155733
RightFoot  -17.3504 -0.00279177 2.18226
RightToes  -1.74624e-010 0 -3.6325e-017
Spine  1.72272 1.99677 8.60128
Spine1  9.29252 4.30318 -8.28357
HEad  -7.1663 -2.00633 -2.97553
LeftShoulder1  -0.151243 3.90087 -31.973
LeftArm  -5.36407 18.3166 -41.146
LeftForeArm  36.3191 -10.6826 -7.14822
LeftHand  -0.120365 10.26 -1.45372
RightShoulder  -1.17184 -6.59854 31.3348
RightArm  25.7583 12.9758 48.2377
RightForeArm  9.10223 13.9848 7.83265
RightHand  -0.266545 5.53827 -3.14976
LeftUpLeg  -18.0721 2.47255 -1.23361
LeftLeg  3.12727 4.94393 -1.2279
LeftFoot  0.899342 0.666716 -6.27947
LeftToes  2.27646e-009 -8.13696e-011 -1.44715e-011
41
root  80.2495 38.336 3.18666 -43.0889 -84.9082 42.506
RightUpLeg  9.22028 -10.5027 -7.60429
RightLeg  10.066 1.75492 0.18442
RightFoot  -18.4133 0.0545373 2.90547
RightToes  -1.74624e-010 0 -3.6325e-017
Spine  0.616117 1.85847 8.13426
Spine1  10.8581 4.28272 -8.40238
HEad  -6.74551 -2.61748 -2.60224
LeftShoulder1  -0.158405 3.91959 -31.9747
LeftArm  -5.66365 17.8366 -41.2782
LeftForeArm  36.2105 -10.8302 -6.98651
LeftHand  -0.0981767 9.71561 -1.16324
RightShoulder  -1.159 -6.5894 31.0342
RightArm  23.6471 12.0747 48.4694
RightForeArm  10.8357 12.4932 8.25682
RightHand  -0.276533 6.45963 -3.03916
LeftUpLeg  -18.3459 2.52652 -2.03122
LeftLeg  5.42206 5.85613 -0.642681
LeftFoot  2.7326 0.34559 -2.98867
LeftToes  2.27646e-009 -8.13696e-011 -1.44715e-011
42
root  79.3749 38.1981 3.38995 -55.4102 -85.5571 54.7126
RightUpLeg  10.721 -10.358 -8.44412
RightLeg  9.91427 3.00511 -0.0706047
RightFoot  -19.3721 0.110186 3.44341
RightToes  -1.74624e-010 0 -3.6325e-017
Spine  0.664396 1.97885 7.32058
Spine1  10.565 4.60098 -9.10262
HEad  -5.44342 -2.8385 -2.35204
LeftShoulder1  -0.230566 4.10432 -32.2467
LeftArm  -4.20118 18.0003 -40.1279
LeftForeArm  35.1052 -11.6841 -7.08272
LeftHand  -0.107871 10.4432 -1.11357
RightShoulder  -1.18948 -6.6336 31.4738
RightArm  23.7299 10.3999 48.2467
RightForeArm  12.2815 11.9057 8.52478
RightHand  -0.229221 5.58225 -2.75287
LeftUpLeg  -18.5679 3.56593 -2.73222
LeftLeg  8.31644 6.28216 -0.162188
LeftFoot  5.40137 -0.13765 0.71379
LeftToes  2.27646e-009 -8.13696e-011 -1.44715e-011
43
root  78.4676 38.0545 3.63403 -61.9641 -84.9815 60.6546
RightUpLeg  12.6367 -10.1848 -9.90467
RightLeg  10.4734 3.35579 -0.395314
RightFoot  -20.2212 0.209293 4.43753
RightToes  -1.74624e-010 0 -3.6325e-017
Spine  0.735221 1.81019 5.29772
Spine1  10.7304 4.38542 -8.75709
HEad  -4.0487 -2.65159 -2.26174
LeftShoulder1  -0.303683 4.28881 -32.5647
LeftArm  -4.58961 16.7088 -39.4504
LeftForeArm  35.321 -10.6538 -7.35567
LeftHand  -0.118807 10.3306 -1.19768
RightShoulder  -1.2522 -6.76966 31.8225
RightArm  22.9017 8.84338 47.9947
RightForeArm  14.6054 10.4968 9.01086
RightHand  -0.24043 4.66691 -3.0508
LeftUpLeg  -18.6452 4.63631 -4.33456
LeftLeg  12.1324 4.72769 0.458623
LeftFoot  5.95745 -0.575794 3.58158
LeftToes  2.27646e-009 -8.13696e-011 -1.44715e-011
44
root  77.5746 37.8857 3.8926 -66.635 -84.2026 64.6791
RightUpLeg  13.6934 -8.96841 -11.2211
RightLeg  12.813 2.70893 -0.651721
RightFoot  -21.2512 0.397254 6.25249
RightToes  -1.74624e-010 0 -3.6325e-017
Spine  1.06143 1.65825 3.57375
Spine1  10.7164 4.27163 -8.82342
HEad  -2.70272 -2.84972 -1.88067
LeftShoulder1  -0.270345 4.20057 -32.6593
LeftArm  -5.21034 14.7455 -39.0325
LeftForeArm  37.1036 -9.60784 -7.48997
LeftHand  -0.0129493 7.79415 -1.39193
RightShoulder  -1.23669 -6.71328 32.0034
RightArm  21.4944 6.13363 47.8772
RightForeArm  16.3825 9.83203 8.92808
RightHand  -0.195817 4.32381 -2.59819
LeftUpLeg  -18.7848 5.32508 -6.10749
LeftLeg  16.5987 4.0617 1.58761
LeftFoot  3.35452 -0.617743 4.62913
LeftToes  2.27646e-009 -8.13696e-011 -1.44715e-011
45
root  76.6617 37.8673 4.186 -72.7815 -83.6665 69.7722
RightUpLeg  14.5286 -5.93014 -12.2182
RightLeg  16.113 1.1312 -0.376856
RightFoot  -20.7705 0.661459 9.71176
RightToes  -1.74624e-010 0 -3.6325e-017
Spine  1.06936 1.629 2.76631
Spine1  11.8918 4.54855 -9.85255
HEad  -1.6047 -2.78949 -2.32119
LeftShoulder1  -0.336853 4.36735 -32.8877
LeftArm  -5.67725 11.5797 -38.7394
LeftForeArm  41.7397 -8.12377 -7.63724
LeftHand  0.217662 -3.55822 -2.95883
RightShoulder  -1.22701 -6.69225 31.9533
RightArm  20.0236 3.3558 48.028
RightForeArm  16.6977 9.13668 8.85142
RightHand  -0.281771 5.0391 -3.41888
LeftUpLeg  -17.0707 5.06304 -7.04518
LeftLeg  18.6474 4.8276 2.13978
LeftFoot  1.18355 -0.604369 5.43036
LeftToes  2.27646e-009 -8.13696e-011 -1.44715e-011
46
root  75.8638 37.8906 4.4815 -88.7117 -83.2566 85.1313
RightUpLeg  13.0525 -1.70921 -13.0319
RightLeg  21.656 0.0111987 -0.131873
RightFoot  -19.444 0.900259 14.6429
RightToes  -1.74624e-010 0 -3.6325e-017
Spine  2.0778 2.1357 1.68691
Spine1  11.0275 5.07043 -11.1632
HEad  0.400909 -2.38679 -2.88115
LeftShoulder1  -0.383678 4.47427 -33.329
LeftArm  -5.17012 9.18483 -38.3096
LeftForeArm  42.5387 -7.29129 -8.0498
LeftHand  0.269264 -4.18058 -3.09602
RightShoulder  -1.2458 -6.71859 32.2199
RightArm  20.7619 0.654164 47.2612
RightForeArm  17.5259 9.00251 9.03524
RightHand  -0.176233 4.02377 -2.49785
LeftUpLeg  -15.3729 5.81333 -7.90659
LeftLeg  19.5132 5.99287 2.55661
LeftFoot  -0.840818 -0.511889 5.61422
LeftToes  2.27646e-009 -8.13696e-011 -1.44715e-011
47
root  75.1041 37.9381 4.74025 -98.0141 -83.1364 94.5061
RightUpLeg  9.47991 0.435996 -13.427
RightLeg  29.5974 0.331349 -0.0471244
RightFoot  -15.8917 0.641071 18.6967
RightToes  -1.74624e-010 0 -3.6325e-017
Spine  3.206 2.00046 0.166995
Spine1  8.65965 4.42558 -11.0908
HEad  2.49783 -0.679376 -3.1327
LeftShoulder1  -0.496049 4.72989 -34.3179
LeftArm  -4.73034 7.68765 -37.437
LeftForeArm  40.6235 -7.29329 -8.32925
LeftHand  0.0938662 2.69376 -2.37495
RightShoulder  -1.25442 -6.69346 32.7833
RightArm  22.2755 -0.857885 46.3458
RightForeArm  19.9056 7.83029 9.80166
RightHand  -0.131848 3.32087 -1.62371
LeftUpLeg  -14.3797 6.20377 -8.11795
LeftLeg  20.183 6.73652 2.73862
LeftFoot  -2.6553 -0.403658 5.52404
LeftToes  2.27646e-009 -8.13696e-011 -1.44715e-011
48
root  74.3153 38.076 4.94705 -97.5546 -83.5863 93.9329
RightUpLeg  5.37137 1.16147 -13.1093
RightLeg  38.0316 -0.153796 -0.38093
RightFoot  -8.66684 -0.420819 17.2427
RightToes  -1.74624e-010 0 -3.6325e-017
Spine  2.86195 1.4752 -1.73214
Spine1  8.87668 3.27319 -9.19861
HEad  2.74597 0.711645 -3.53835
LeftShoulder1  -0.452683 4.63087 -34.0099
LeftArm  -3.13282 6.25081 -38.4414
LeftForeArm  36.2729 -8.87514 -8.59165
LeftHand  -0.0822304 11.1077 0.16636
RightShoulder  -1.20122 -6.57518 32.561
RightArm  22.3544 -2.69469 46.0505
RightForeArm  24.1657 8.8887 9.22493
RightHand  0.185972 2.14989 2.86429
LeftUpLeg  -12.7086 5.89526 -7.7389
LeftLeg  19.9279 6.95145 2.55643
LeftFoot  -3.95068 -0.33056 5.48108
LeftToes  2.27646e-009 -8.13696e-011 -1.44715e-011
